<svg width="370" height="306" viewBox="0 0 370 306" fill="none" xmlns="http://www.w3.org/2000/svg">
<g clip-path="url(#clip0_763_1345)">
<path d="M293.127 295.75H184.974C184.974 295.75 182.781 259.664 195.752 259.254C208.724 258.844 207.262 275.247 223.521 252.693C239.781 230.138 259.512 231.369 262.069 244.696C264.627 258.024 257.137 268.686 270.839 265.405C284.54 262.124 304.271 270.736 293.127 295.75Z" fill="#D0CDE1"/>
<path d="M237.225 295.758L236.859 295.742C237.711 271.983 242.144 256.718 245.714 248.095C249.589 238.733 253.324 234.943 253.361 234.906L253.604 235.212C253.567 235.249 249.876 239.002 246.032 248.3C242.482 256.886 238.073 272.089 237.225 295.758Z" fill="#F2F2F2"/>
<path d="M276.368 295.808L276.017 295.693C280.241 279.423 290.187 269.15 290.287 269.048L290.533 269.352C290.433 269.453 280.562 279.653 276.368 295.808Z" fill="#F2F2F2"/>
<path d="M202.008 295.779L201.646 295.722C203.079 284.123 200.491 275.124 198.067 269.617C195.442 263.655 192.448 260.398 192.418 260.366L192.671 260.07C192.701 260.103 195.742 263.409 198.394 269.436C200.841 274.994 203.454 284.076 202.008 295.779Z" fill="#F2F2F2"/>
<path d="M307.805 296.754H173.308L173.277 296.243C173.2 294.971 171.484 264.966 180.147 254.26C182.083 251.867 184.416 250.611 187.08 250.527C192.726 250.346 196.275 252.72 199.137 254.625C204.531 258.217 208.095 260.59 221.052 242.617C235.088 223.146 250.233 218.957 258.939 221.286C264.565 222.791 268.442 227.046 269.576 232.958C270.651 238.557 270.309 243.817 270.034 248.044C269.739 252.567 269.507 256.139 271.162 257.758C272.544 259.109 275.301 259.232 279.84 258.145C289.072 255.934 301.954 257.826 308.42 267.202C311.898 272.246 314.639 281.415 307.94 296.451L307.805 296.754ZM174.226 295.657H307.2C312.192 284.291 312.347 274.689 307.647 267.873C301.715 259.272 289.271 257.008 280.044 259.218C275.113 260.399 272.175 260.204 270.52 258.585C268.496 256.606 268.744 252.793 269.059 247.964C269.329 243.807 269.666 238.634 268.621 233.189C267.569 227.706 263.957 223.757 258.713 222.353C250.284 220.096 235.562 224.233 221.812 243.307C208.324 262.016 204.26 259.312 198.638 255.569C195.741 253.641 192.451 251.453 187.107 251.623C184.719 251.699 182.621 252.834 180.87 254.998C173.085 264.619 174.036 291.6 174.226 295.657Z" fill="#3F3D56"/>
<path d="M40.4287 296.976L39.9152 296.76C39.8023 296.712 28.5706 291.883 23.3092 280.932C18.0476 269.98 20.624 256.795 20.6506 256.663L20.7719 256.063L21.2852 256.279C21.398 256.327 32.6295 261.156 37.8911 272.107C43.1527 283.058 40.5764 296.244 40.5497 296.376L40.4287 296.976ZM24.1518 280.422C28.6001 289.681 37.4757 294.427 39.7245 295.511C40.1521 292.806 41.493 281.867 37.0486 272.617C32.6047 263.368 23.7256 258.614 21.4758 257.528C21.048 260.235 19.7076 271.172 24.1518 280.422Z" fill="#3F3D56"/>
<path d="M27.3302 277.09C36.7856 283.475 40.4272 296.156 40.4272 296.156C40.4272 296.156 28.7385 298.486 19.2831 292.102C9.82762 285.717 6.18604 273.036 6.18604 273.036C6.18604 273.036 17.8748 270.706 27.3302 277.09Z" fill="#D0CDE1"/>
<path d="M311.967 295.836H6V296.91H311.967V295.836Z" fill="#3F3D56"/>
<path d="M111.611 22.7636C111.611 22.7636 105.222 20.2026 101.114 30.4465C97.007 40.6903 90.6178 51.9586 90.6178 51.9586L94.2688 52.983C94.2688 52.983 95.1815 45.8123 97.4634 44.7879L96.5506 54.0074C96.5506 54.0074 123.933 64.7634 136.255 52.983L135.799 49.3976C135.799 49.3976 137.624 49.9098 137.624 52.983L138.993 51.4464C138.993 51.4464 137.624 48.3732 133.517 44.2757C130.821 41.5862 129.894 36.4696 129.576 33.2706C129.338 30.5994 128.385 28.0714 126.844 26.0183C124.115 22.468 119.141 18.6945 111.611 22.7636Z" fill="#2F2E41"/>
<path d="M94.3659 112.597L93.8439 123.141C93.8439 123.141 81.8389 145.401 83.9267 174.106C86.0145 202.81 58.8728 274.864 79.7511 278.378C100.629 281.893 108.459 288.923 110.547 280.722C112.634 272.52 114.722 171.763 114.722 171.763C114.722 171.763 114.722 284.822 141.342 282.479C167.962 280.136 169.528 277.207 169.006 273.692C168.484 270.177 133.513 120.798 132.991 119.626C132.469 118.455 122.03 110.253 122.03 110.253L94.3659 112.597Z" fill="#2F2E41"/>
<path d="M83.9266 277.207L82.8827 298.296C82.8827 298.296 67.7459 327 78.1851 327C88.6242 327 94.8877 314.698 94.8877 310.598V278.379L83.9266 277.207Z" fill="#2F2E41"/>
<path d="M151.781 277.207L152.825 298.296C152.825 298.296 167.962 327 157.523 327C147.083 327 140.82 314.698 140.82 310.598V278.379L151.781 277.207Z" fill="#2F2E41"/>
<path d="M114.461 56.3598C120.947 56.3598 126.205 50.4587 126.205 43.1793C126.205 35.8999 120.947 29.9988 114.461 29.9988C107.975 29.9988 102.717 35.8999 102.717 43.1793C102.717 50.4587 107.975 56.3598 114.461 56.3598Z" fill="#FFB8B8"/>
<path d="M106.376 46.1082C106.376 46.1082 106.376 65.4396 105.128 66.6112C103.88 67.7828 121.769 67.197 121.769 67.197C121.769 67.197 118.857 50.2088 119.273 49.0372C119.689 47.8656 106.376 46.1082 106.376 46.1082Z" fill="#FFB8B8"/>
<path d="M129.337 65.1469C129.337 65.1469 125.422 57.2386 120.725 56.067C114.844 54.6003 107.154 54.8954 106.11 55.4812C105.066 56.067 100.629 65.1469 100.629 65.1469C100.629 65.1469 89.1462 71.5907 89.1462 72.7623C89.1462 73.9339 92.7999 117.283 92.7999 117.283C92.7999 117.283 103.761 120.798 114.2 116.697C124.639 112.597 134.557 123.141 134.557 123.141L140.82 71.0049L129.337 65.1469Z" fill="#D0CDE1"/>
<path d="M92.278 72.7622C92.278 72.7622 77.6632 72.7622 76.0973 83.8924C74.5314 95.0227 78.7071 107.91 84.9706 111.425C91.2341 114.94 95.4097 116.697 96.9756 114.354C98.5415 112.011 92.278 72.7622 92.278 72.7622Z" fill="#D0CDE1"/>
<path d="M136.644 71.0046H140.82C140.82 71.0046 157.001 89.1645 157.001 97.3657C157.001 105.567 137.688 118.455 134.035 117.283C130.381 116.111 136.644 71.0046 136.644 71.0046Z" fill="#D0CDE1"/>
<path d="M100.999 45.1106C100.999 45.1106 104.65 39.4765 107.844 38.4521C111.039 37.4277 111.495 32.3058 111.495 32.3058C111.495 32.3058 119.71 42.5496 124.73 43.0619C129.75 43.5741 125.187 30.7692 125.187 30.7692L116.059 28.2083L107.388 29.2326L100.542 34.3546L100.999 45.1106Z" fill="#2F2E41"/>
<path opacity="0.1" d="M88.8855 73.055L82.6221 91.215L90.6181 72.8635L88.8855 73.055Z" fill="black"/>
<path opacity="0.1" d="M138.706 72.0881L152.042 94.1438L140.69 72.0881H138.706Z" fill="black"/>
<path d="M124.815 66.1241C124.815 66.1241 119.335 53.4272 125.443 53.2958C131.552 53.1645 132.009 64.2675 132.009 64.2675L124.815 66.1241Z" fill="#FFB8B8"/>
<path d="M150.737 94.4369L135.6 66.3185L132.991 60.4604L124.348 64.5726L126.205 78.6203C126.205 78.6203 125.683 87.9931 127.771 90.9221C129.859 93.8511 137.688 114.354 137.688 114.354L150.737 94.4369Z" fill="#D0CDE1"/>
<path opacity="0.1" d="M124.379 64.2678L128.126 116.3L134.47 115.985L124.379 64.2678Z" fill="black"/>
<path d="M96.7147 59.5817C96.7147 59.5817 95.6708 45.5225 101.412 47.8657C107.154 50.2089 104.022 60.7533 104.022 60.7533L96.7147 59.5817Z" fill="#FFB8B8"/>
<path d="M81.8389 92.0938L93.322 66.3185C93.322 66.3185 93.322 62.2179 94.3659 61.0463C95.4098 59.8747 95.4098 57.5315 95.4098 57.5315H105.321L105.849 69.2475C105.849 69.2475 107.937 78.0345 105.849 89.1648C103.761 100.295 100.629 114.354 100.107 114.354C99.5855 114.354 80.795 105.567 81.8389 92.0938Z" fill="#D0CDE1"/>
<path opacity="0.1" d="M105.066 57.2385L100.89 114.061L107.154 115.233L105.066 57.2385Z" fill="black"/>
<path d="M37.9134 169.046L26.2289 174.117L30.5914 186.777L42.276 181.705L37.9134 169.046Z" fill="white"/>
<path d="M40.1645 180.707L27.865 186.046L23.2728 172.72L35.5723 167.381L40.1645 180.707ZM28.2504 185.112L39.3199 180.307L35.187 168.314L24.1174 173.119L28.2504 185.112Z" fill="#3F3D56"/>
<path d="M257.525 167.105L376 167.105V54.155L257.525 54.155V167.105Z" fill="white"/>
<path d="M357.534 152.099H237.773V37.7063H357.534V152.099ZM239.059 150.656H356.248V39.1494H239.059V150.656Z" fill="#3F3D56"/>
<path d="M344.85 121.567H272.255V122.483H344.85V121.567Z" fill="#3F3D56"/>
<path d="M344.85 127.975H272.255V128.891H344.85V127.975Z" fill="#3F3D56"/>
<path d="M344.85 134.383H272.255V135.299H344.85V134.383Z" fill="#3F3D56"/>
<path d="M344.85 92.1697H272.255V93.0851H344.85V92.1697Z" fill="#3F3D56"/>
<path d="M344.85 98.5779H272.255V99.4933H344.85V98.5779Z" fill="#3F3D56"/>
<path d="M344.85 104.986H272.255V105.901H344.85V104.986Z" fill="#3F3D56"/>
<path d="M290.06 69.1755H273.732V84.0651H290.06V69.1755Z" fill="#D0CDE1"/>
<path d="M287.679 81.7745H270.67V66.1213H287.679V81.7745ZM271.351 81.0109H286.999V66.8849H271.351V81.0109Z" fill="#3F3D56"/>
</g>
<defs>
<clipPath id="clip0_763_1345">
<rect width="370" height="306" fill="white"/>
</clipPath>
</defs>
</svg>
